<mxfile host="65bd71144e">
    <diagram id="n9wY_TJITBzp8rn4aVeb" name="Page-1">
        <mxGraphModel dx="104" dy="99" grid="1" gridSize="5" guides="1" tooltips="1" connect="0" arrows="0" fold="1" page="1" pageScale="1" pageWidth="850" pageHeight="1100" math="0" shadow="0">
            <root>
                <mxCell id="0"/>
                <mxCell id="1" parent="0"/>
                <mxCell id="97" value="" style="group;rotation=0;fillColor=none;" parent="1" vertex="1" connectable="0">
                    <mxGeometry width="45" height="45" as="geometry"/>
                </mxCell>
                <mxCell id="95" value="" style="rounded=1;whiteSpace=wrap;html=1;shadow=0;strokeColor=default;strokeWidth=1;fillColor=none;gradientColor=none;arcSize=13;rotation=0;" parent="97" vertex="1">
                    <mxGeometry width="45" height="45.00000000000001" as="geometry"/>
                </mxCell>
                <mxCell id="92" value="" style="rounded=1;whiteSpace=wrap;html=1;shadow=0;fillColor=none;arcSize=50;gradientColor=none;strokeColor=default;strokeWidth=0.5;rotation=0;" parent="97" vertex="1">
                    <mxGeometry x="5.5762081784386615" y="19.09892262487757" width="33.75" height="5.999999999999999" as="geometry"/>
                </mxCell>
                <mxCell id="93" value="" style="rounded=1;whiteSpace=wrap;html=1;shadow=0;fillColor=none;arcSize=50;gradientColor=none;strokeColor=default;strokeWidth=0.5;rotation=0;" parent="97" vertex="1">
                    <mxGeometry x="5.5762081784386615" y="8.81488736532811" width="33.75" height="5.999999999999999" as="geometry"/>
                </mxCell>
                <mxCell id="94" value="" style="rounded=1;whiteSpace=wrap;html=1;shadow=0;fillColor=none;arcSize=50;gradientColor=none;strokeColor=default;strokeWidth=0.5;rotation=0;" parent="97" vertex="1">
                    <mxGeometry x="5.5762081784386615" y="29.382957884427032" width="33.75" height="5.999999999999999" as="geometry"/>
                </mxCell>
            </root>
        </mxGraphModel>
    </diagram>
</mxfile>